{
	"asset":{
		"version":"2.0",
		"generator":"Created using the official Cinema 4D glTF Exporter 1.000x284978"
	},
	"scenes":[{
		"nodes":[0]
	}],
	"nodes":[{
		"name":"корончатая.1",
		"translation":[29.596574783325197,
		5.40410041809082,
		-39.6270866394043],
		"rotation":[1.0,
		-6.123234262925839e-17,
		6.123234262925839e-17,
		-6.123234262925839e-17],
		"scale":[1.0,
		1.0,
		1.0],
		"mesh":0
	}],
	"meshes":[{
		"name":"корончатая.1",
		"primitives":[{
			"attributes":{
				"POSITION":1,
				"TEXCOORD_0":2
			},
			"indices":0
		}]
	}],
	"accessors":[{
		"bufferView":0,
		"type":"SCALAR",
		"componentType":5123,
		"count":315702,
		"byteOffset":0,
		"min":[0],
		"max":[54881]
	},
	{
		"bufferView":1,
		"type":"VEC3",
		"componentType":5126,
		"count":54882,
		"byteOffset":0,
		"min":[-3.4276702404022219,
		-3.4276702404022219,
		-0.7810547947883606],
		"max":[3.4276702404022219,
		3.4276702404022219,
		0.7810547947883606]
	},
	{
		"bufferView":1,
		"type":"VEC2",
		"componentType":5126,
		"count":54882,
		"byteOffset":12,
		"min":[0.0,
		0.0],
		"max":[1.0,
		1.0]
	}],
	"bufferViews":[{
		"buffer":0,
		"byteOffset":0,
		"byteLength":631404,
		"target":34963
	},
	{
		"buffer":0,
		"byteOffset":631404,
		"byteLength":1097640,
		"target":34962,
		"byteStride":20
	}],
	"buffers":[{
		"uri":"data:application/octet-stream;base64,",
		"byteLength":1729044
	}]
}